<svg width="41" height="40" viewBox="0 0 41 40" fill="none" xmlns="http://www.w3.org/2000/svg">
<g clip-path="url(#clip0_12620_46207)">
<path d="M20.668 40C31.7137 40 40.668 31.0457 40.668 20C40.668 8.9543 31.7137 0 20.668 0C9.62227 0 0.667969 8.9543 0.667969 20C0.667969 31.0457 9.62227 40 20.668 40Z" fill="url(#paint0_linear_12620_46207)"/>
<path d="M20.668 8.20312C14.1527 8.20312 8.87109 13.4848 8.87109 20C8.87109 26.5152 14.1527 31.7969 20.668 31.7969C27.1832 31.7969 32.4648 26.5152 32.4648 20C32.4648 13.4848 27.1832 8.20312 20.668 8.20312ZM26.5612 17.0395L18.7409 24.8598C18.4709 25.1297 18.0333 25.1297 17.7634 24.8598L13.8532 20.9496C13.5833 20.6797 13.5833 20.242 13.8532 19.9721C14.1231 19.7022 14.5608 19.7022 14.8308 19.9721L18.2521 23.3935L25.5837 16.062C25.8536 15.792 26.2912 15.792 26.5612 16.062C26.8311 16.3318 26.8311 16.7695 26.5612 17.0395Z" fill="white"/>
</g>
<defs>
<linearGradient id="paint0_linear_12620_46207" x1="20.668" y1="40" x2="20.668" y2="0" gradientUnits="userSpaceOnUse">
<stop stop-color="#34A853"/>
<stop offset="1" stop-color="#42AE5F" stop-opacity="0.46"/>
</linearGradient>
<clipPath id="clip0_12620_46207">
<rect width="40" height="40" fill="white" transform="translate(0.667969)"/>
</clipPath>
</defs>
</svg>
