<svg width="40" height="40" viewBox="0 0 40 40" fill="none" xmlns="http://www.w3.org/2000/svg">
<g clip-path="url(#clip0_15154_77524)">
<path d="M20 40C31.0457 40 40 31.0457 40 20C40 8.9543 31.0457 0 20 0C8.9543 0 0 8.9543 0 20C0 31.0457 8.9543 40 20 40Z" fill="url(#paint0_linear_15154_77524)"/>
<path d="M20 22.0818C23.8325 22.0818 26.9393 18.9749 26.9393 15.1424C26.9393 11.31 23.8325 8.20312 20 8.20312C16.1675 8.20312 13.0607 11.31 13.0607 15.1424C13.0607 18.9749 16.1675 22.0818 20 22.0818ZM20 19.3061C19.6168 19.3061 19.3061 18.9954 19.3061 18.6122C19.3061 18.2289 19.6168 17.9183 20 17.9183C20.3832 17.9183 20.6939 18.2289 20.6939 18.6122C20.6939 18.9954 20.3832 19.3061 20 19.3061ZM20 10.9788C21.148 10.9788 22.0818 11.9127 22.0818 13.0606C22.0818 13.8013 21.6834 14.4926 21.0409 14.8633C20.8268 14.9873 20.694 15.2184 20.694 15.465V15.8364C20.694 16.2199 20.3836 16.5303 20.0001 16.5303C19.6166 16.5303 19.3062 16.2199 19.3062 15.8364V15.465C19.3062 14.7244 19.7046 14.0338 20.3457 13.6624C20.5612 13.5384 20.694 13.308 20.694 13.0606C20.694 12.6777 20.3823 12.3667 20.0001 12.3667C19.6179 12.3667 19.3062 12.6777 19.3062 13.0606C19.3062 13.4442 18.9958 13.7545 18.6123 13.7545C18.2288 13.7545 17.9184 13.4441 17.9184 13.0606C17.9182 11.9127 18.852 10.9788 20 10.9788ZM29.7151 16.5303H28.2018C27.538 20.4623 24.1181 23.4696 20 23.4696C15.8819 23.4696 12.462 20.4623 11.7982 16.5303H10.2849C9.13695 16.5303 8.20312 17.4641 8.20312 18.6121V29.7151C8.20312 30.863 9.13695 31.7969 10.2849 31.7969H29.7151C30.863 31.7969 31.7969 30.863 31.7969 29.7151V18.6121C31.7969 17.4641 30.863 16.5303 29.7151 16.5303ZM28.7718 21.9212L20.4445 28.8605C20.3688 28.9233 20.162 29.0212 20 29.0212C19.8377 29.0212 19.6309 28.9231 19.5555 28.8605L11.2283 21.9212C10.9342 21.6759 10.8948 21.238 11.1402 20.9433C11.3868 20.6478 11.8233 20.612 12.1173 20.8545L20 27.4234L27.8827 20.8545C28.1754 20.6099 28.6132 20.6465 28.8598 20.9433C29.1052 21.2381 29.0659 21.6759 28.7718 21.9212Z" fill="#FBBC04"/>
</g>
<defs>
<linearGradient id="paint0_linear_15154_77524" x1="20" y1="40" x2="20" y2="0" gradientUnits="userSpaceOnUse">
<stop stop-color="#FFE59A"/>
<stop offset="1" stop-color="#FFFFD5"/>
</linearGradient>
<clipPath id="clip0_15154_77524">
<rect width="40" height="40" fill="white"/>
</clipPath>
</defs>
</svg>
