<svg width="41" height="40" viewBox="0 0 41 40" fill="none" xmlns="http://www.w3.org/2000/svg">
<g clip-path="url(#clip0_12620_46232)">
<path d="M20.334 40C31.3797 40 40.334 31.0457 40.334 20C40.334 8.9543 31.3797 0 20.334 0C9.28829 0 0.333984 8.9543 0.333984 20C0.333984 31.0457 9.28829 40 20.334 40Z" fill="url(#paint0_linear_12620_46232)"/>
<path d="M20.334 22.0818C24.1665 22.0818 27.2733 18.9749 27.2733 15.1424C27.2733 11.31 24.1665 8.20312 20.334 8.20312C16.5015 8.20312 13.3947 11.31 13.3947 15.1424C13.3947 18.9749 16.5015 22.0818 20.334 22.0818ZM20.334 19.3061C19.9508 19.3061 19.6401 18.9954 19.6401 18.6122C19.6401 18.2289 19.9508 17.9183 20.334 17.9183C20.7172 17.9183 21.0279 18.2289 21.0279 18.6122C21.0279 18.9954 20.7172 19.3061 20.334 19.3061ZM20.334 10.9788C21.482 10.9788 22.4158 11.9127 22.4158 13.0606C22.4158 13.8013 22.0173 14.4926 21.3749 14.8633C21.1608 14.9873 21.028 15.2184 21.028 15.465V15.8364C21.028 16.2199 20.7176 16.5303 20.3341 16.5303C19.9505 16.5303 19.6402 16.2199 19.6402 15.8364V15.465C19.6402 14.7244 20.0386 14.0338 20.6797 13.6624C20.8952 13.5384 21.028 13.308 21.028 13.0606C21.028 12.6777 20.7163 12.3667 20.3341 12.3667C19.9519 12.3667 19.6402 12.6777 19.6402 13.0606C19.6402 13.4442 19.3298 13.7545 18.9462 13.7545C18.5627 13.7545 18.2523 13.4441 18.2523 13.0606C18.2522 11.9127 19.186 10.9788 20.334 10.9788ZM30.0491 16.5303H28.5358C27.872 20.4623 24.4521 23.4696 20.334 23.4696C16.2159 23.4696 12.796 20.4623 12.1322 16.5303H10.6189C9.47094 16.5303 8.53711 17.4641 8.53711 18.6121V29.7151C8.53711 30.863 9.47094 31.7969 10.6189 31.7969H30.0491C31.197 31.7969 32.1309 30.863 32.1309 29.7151V18.6121C32.1309 17.4641 31.197 16.5303 30.0491 16.5303ZM29.1058 21.9212L20.7785 28.8605C20.7028 28.9233 20.496 29.0212 20.334 29.0212C20.1717 29.0212 19.9648 28.9231 19.8895 28.8605L11.5623 21.9212C11.2682 21.6759 11.2288 21.238 11.4741 20.9433C11.7208 20.6478 12.1573 20.612 12.4513 20.8545L20.334 27.4234L28.2166 20.8545C28.5094 20.6099 28.9472 20.6465 29.1938 20.9433C29.4391 21.2381 29.3998 21.6759 29.1058 21.9212Z" fill="#FBBC04"/>
</g>
<defs>
<linearGradient id="paint0_linear_12620_46232" x1="20.334" y1="40" x2="20.334" y2="0" gradientUnits="userSpaceOnUse">
<stop stop-color="#FFE59A"/>
<stop offset="1" stop-color="#FFFFD5"/>
</linearGradient>
<clipPath id="clip0_12620_46232">
<rect width="40" height="40" fill="white" transform="translate(0.333984)"/>
</clipPath>
</defs>
</svg>
