<svg width="40" height="40" viewBox="0 0 40 40" fill="none" xmlns="http://www.w3.org/2000/svg">
<g clip-path="url(#clip0_12620_46219)">
<path fill-rule="evenodd" clip-rule="evenodd" d="M40 20C40 31.0457 31.0457 40 20 40C8.9543 40 0 31.0457 0 20C0 8.9543 8.9543 0 20 0C31.0457 0 40 8.9543 40 20Z" fill="url(#paint0_linear_12620_46219)"/>
<path d="M31.7188 20C31.7188 13.5384 26.4618 8.28125 19.9999 8.28125C13.538 8.28125 8.28125 13.5382 8.28125 20C8.28125 26.4618 13.5382 31.7188 20.0001 31.7188C26.462 31.7188 31.7188 26.4616 31.7188 20ZM11.6294 20C11.6294 15.3845 15.3844 11.6296 19.9999 11.6296C21.7034 11.6296 23.289 12.1423 24.6126 13.0199L13.0198 24.6126C12.1422 23.2889 11.6294 21.7035 11.6294 20ZM26.9802 15.3874C27.8578 16.7109 28.3706 18.2965 28.3706 20C28.3706 24.6155 24.6156 28.3704 20.0001 28.3704C18.2966 28.3704 16.711 27.8577 15.3874 26.9801L26.9802 15.3874Z" fill="url(#paint1_linear_12620_46219)"/>
</g>
<defs>
<linearGradient id="paint0_linear_12620_46219" x1="20" y1="40" x2="20" y2="0" gradientUnits="userSpaceOnUse">
<stop stop-color="#FFEDAD"/>
<stop offset="1" stop-color="#FFFFE5"/>
</linearGradient>
<linearGradient id="paint1_linear_12620_46219" x1="36.8527" y1="65.4237" x2="36.8527" y2="8.28125" gradientUnits="userSpaceOnUse">
<stop stop-color="#EA4335"/>
<stop offset="1" stop-color="#FD5900"/>
</linearGradient>
<clipPath id="clip0_12620_46219">
<rect width="40" height="40" fill="white"/>
</clipPath>
</defs>
</svg>
