<svg width="41" height="40" viewBox="0 0 41 40" fill="none" xmlns="http://www.w3.org/2000/svg">
<g clip-path="url(#clip0_12620_46247)">
<path d="M20.668 40C31.7137 40 40.668 31.0457 40.668 20C40.668 8.9543 31.7137 0 20.668 0C9.62227 0 0.667969 8.9543 0.667969 20C0.667969 31.0457 9.62227 40 20.668 40Z" fill="url(#paint0_linear_12620_46247)"/>
<path d="M15.1165 17.2341H9.565C9.18141 17.2341 8.87109 17.5445 8.87109 17.928V29.031C8.87109 29.4145 9.18148 29.7249 9.565 29.7249H15.1165C15.5001 29.7249 15.8104 29.4145 15.8104 29.031V17.9281C15.8105 17.5445 15.5001 17.2341 15.1165 17.2341ZM13.7286 21.398C13.3454 21.398 13.0347 21.0873 13.0347 20.7041C13.0347 20.3208 13.3454 20.0102 13.7286 20.0102C14.1118 20.0102 14.4225 20.3208 14.4225 20.7041C14.4226 21.0873 14.1119 21.398 13.7286 21.398ZM29.3421 22.766H31.4239C31.9987 22.766 32.4648 22.2999 32.4648 21.7252C32.4648 21.1502 31.9987 20.6843 31.4239 20.6843H29.6891C29.3059 20.6843 28.9952 20.3736 28.9952 19.9904C28.9952 19.6071 29.3059 19.2965 29.6891 19.2965H31.4239C31.9987 19.2965 32.4648 18.8304 32.4648 18.2556C32.4648 17.6807 31.9987 17.2147 31.4239 17.2147H25.5255V12.3572C25.5255 11.2074 24.5934 10.2754 23.4437 10.2754C23.0605 10.2754 22.7498 10.586 22.7498 10.9693V14.7812L20.0499 16.5811C19.3295 17.0609 18.8376 17.7955 18.66 18.6223H17.1983V28.3373H19.0036C20.0011 29.2346 21.2779 29.7252 22.6305 29.7252C22.7709 29.7248 30.606 29.7055 30.036 29.7055C30.6109 29.7055 31.077 29.2395 31.077 28.6647C31.077 28.0898 30.6109 27.6238 30.036 27.6238H28.9952C28.612 27.6238 28.3013 27.3131 28.3013 26.9299C28.3013 26.5466 28.612 26.236 28.9952 26.236H31.4239C31.9987 26.236 32.4648 25.7699 32.4648 25.1952C32.4648 24.6202 31.9987 24.1543 31.4239 24.1543H29.3421C28.9589 24.1543 28.6482 23.8436 28.6482 23.4603C28.6482 23.0766 28.9589 22.766 29.3421 22.766Z" fill="url(#paint1_linear_12620_46247)"/>
</g>
<defs>
<linearGradient id="paint0_linear_12620_46247" x1="20.668" y1="40" x2="20.668" y2="0" gradientUnits="userSpaceOnUse">
<stop stop-color="#2C8AD3"/>
<stop offset="1" stop-color="#2C8AD3" stop-opacity="0.57"/>
</linearGradient>
<linearGradient id="paint1_linear_12620_46247" x1="20.668" y1="10.2752" x2="20.668" y2="29.725" gradientUnits="userSpaceOnUse">
<stop stop-color="white"/>
<stop offset="1" stop-color="white"/>
</linearGradient>
<clipPath id="clip0_12620_46247">
<rect width="40" height="40" fill="white" transform="translate(0.667969)"/>
</clipPath>
</defs>
</svg>
