<svg width="100" height="100" viewBox="0 0 100 100" fill="none" xmlns="http://www.w3.org/2000/svg">
<rect x="0.5" y="0.5" width="99" height="99" rx="11.5" fill="#EEF0F4"/>
<rect x="0.5" y="0.5" width="99" height="99" rx="11.5" stroke="#2C8AD3" stroke-linecap="round" stroke-dasharray="4 4"/>
<mask id="mask0_37558_15228" style="mask-type:alpha" maskUnits="userSpaceOnUse" x="26" y="26" width="48" height="48">
<rect x="26" y="26" width="48" height="48" fill="#D9D9D9"/>
</mask>
<g mask="url(#mask0_37558_15228)">
<path d="M35 68C34.2 68 33.5 67.7 32.9 67.1C32.3 66.5 32 65.8 32 65V35C32 34.2 32.3 33.5 32.9 32.9C33.5 32.3 34.2 32 35 32H53.95C54.3833 32 54.7417 32.1417 55.025 32.425C55.3083 32.7083 55.45 33.0667 55.45 33.5C55.45 33.9333 55.3083 34.2917 55.025 34.575C54.7417 34.8583 54.3833 35 53.95 35H35V65H65V46.1C65 45.6667 65.1417 45.3083 65.425 45.025C65.7083 44.7417 66.0667 44.6 66.5 44.6C66.9333 44.6 67.2917 44.7417 67.575 45.025C67.8583 45.3083 68 45.6667 68 46.1V65C68 65.8 67.7 66.5 67.1 67.1C66.5 67.7 65.8 68 65 68H35ZM62.5 43.1C62.0667 43.1 61.7083 42.9583 61.425 42.675C61.1417 42.3917 61 42.0333 61 41.6V39.05H58.45C58.0167 39.05 57.6583 38.9083 57.375 38.625C57.0917 38.3417 56.95 37.9833 56.95 37.55C56.95 37.1167 57.0917 36.7583 57.375 36.475C57.6583 36.1917 58.0167 36.05 58.45 36.05H61V33.5C61 33.0667 61.1417 32.7083 61.425 32.425C61.7083 32.1417 62.0667 32 62.5 32C62.9333 32 63.2917 32.1417 63.575 32.425C63.8583 32.7083 64 33.0667 64 33.5V36.05H66.55C66.9833 36.05 67.3417 36.1917 67.625 36.475C67.9083 36.7583 68.05 37.1167 68.05 37.55C68.05 37.9833 67.9083 38.3417 67.625 38.625C67.3417 38.9083 66.9833 39.05 66.55 39.05H64V41.6C64 42.0333 63.8583 42.3917 63.575 42.675C63.2917 42.9583 62.9333 43.1 62.5 43.1ZM39.55 59.9H60.5C60.8333 59.9 61.0667 59.7667 61.2 59.5C61.3333 59.2333 61.3 58.9667 61.1 58.7L55.4 51.1C55.2333 50.9 55.0333 50.8 54.8 50.8C54.5667 50.8 54.3667 50.9 54.2 51.1L48.45 58.65L44.35 53.25C44.1833 53.05 43.9833 52.95 43.75 52.95C43.5167 52.95 43.3167 53.05 43.15 53.25L38.95 58.7C38.7833 58.9667 38.775 59.2333 38.925 59.5C39.075 59.7667 39.2833 59.9 39.55 59.9Z" fill="#2C8AD3"/>
</g>
</svg>
