<svg width="40" height="40" viewBox="0 0 40 40" fill="none" xmlns="http://www.w3.org/2000/svg">
<g clip-path="url(#clip0_15154_77551)">
<path d="M20 40C31.0457 40 40 31.0457 40 20C40 8.9543 31.0457 0 20 0C8.9543 0 0 8.9543 0 20C0 31.0457 8.9543 40 20 40Z" fill="url(#paint0_linear_15154_77551)"/>
<path d="M14.4485 17.2341H8.89703C8.51344 17.2341 8.20312 17.5445 8.20312 17.928V29.031C8.20312 29.4145 8.51352 29.7249 8.89703 29.7249H14.4485C14.8321 29.7249 15.1424 29.4145 15.1424 29.031V17.9281C15.1425 17.5445 14.8321 17.2341 14.4485 17.2341ZM13.0606 21.398C12.6774 21.398 12.3667 21.0873 12.3667 20.7041C12.3667 20.3208 12.6774 20.0102 13.0606 20.0102C13.4438 20.0102 13.7545 20.3208 13.7545 20.7041C13.7546 21.0873 13.4439 21.398 13.0606 21.398ZM28.6741 22.766H30.7559C31.3308 22.766 31.7968 22.2999 31.7968 21.7252C31.7968 21.1502 31.3307 20.6843 30.7559 20.6843H29.0211C28.6379 20.6843 28.3272 20.3736 28.3272 19.9904C28.3272 19.6071 28.6379 19.2965 29.0211 19.2965H30.7559C31.3308 19.2965 31.7968 18.8304 31.7968 18.2556C31.7968 17.6807 31.3307 17.2147 30.7559 17.2147H24.8575V12.3572C24.8575 11.2074 23.9255 10.2754 22.7757 10.2754C22.3925 10.2754 22.0818 10.586 22.0818 10.9693V14.7812L19.382 16.5811C18.6616 17.0609 18.1696 17.7955 17.992 18.6223H16.5303V28.3373H18.3356C19.3331 29.2346 20.6099 29.7252 21.9625 29.7252C22.103 29.7248 29.938 29.7055 29.368 29.7055C29.9429 29.7055 30.409 29.2395 30.409 28.6647C30.409 28.0898 29.9429 27.6238 29.368 27.6238H28.3272C27.944 27.6238 27.6333 27.3131 27.6333 26.9299C27.6333 26.5466 27.944 26.236 28.3272 26.236H30.7559C31.3308 26.236 31.7968 25.7699 31.7968 25.1952C31.7968 24.6202 31.3307 24.1543 30.7559 24.1543H28.6741C28.2909 24.1543 27.9802 23.8436 27.9802 23.4603C27.9802 23.0766 28.2909 22.766 28.6741 22.766Z" fill="url(#paint1_linear_15154_77551)"/>
</g>
<defs>
<linearGradient id="paint0_linear_15154_77551" x1="20" y1="40" x2="20" y2="0" gradientUnits="userSpaceOnUse">
<stop stop-color="#2C8AD3"/>
<stop offset="1" stop-color="#2C8AD3" stop-opacity="0.57"/>
</linearGradient>
<linearGradient id="paint1_linear_15154_77551" x1="20" y1="10.2752" x2="20" y2="29.725" gradientUnits="userSpaceOnUse">
<stop stop-color="white"/>
<stop offset="1" stop-color="white"/>
</linearGradient>
<clipPath id="clip0_15154_77551">
<rect width="40" height="40" fill="white"/>
</clipPath>
</defs>
</svg>
