<svg width="40" height="40" viewBox="0 0 40 40" fill="none" xmlns="http://www.w3.org/2000/svg">
<g clip-path="url(#clip0_12620_46262)">
<path d="M20 40C31.0457 40 40 31.0457 40 20C40 8.9543 31.0457 0 20 0C8.9543 0 0 8.9543 0 20C0 31.0457 8.9543 40 20 40Z" fill="url(#paint0_linear_12620_46262)"/>
<path d="M27.8398 14.5448L29.3372 13.0504C29.6088 12.7793 29.6088 12.3402 29.3372 12.0691C29.0655 11.798 28.6255 11.798 28.354 12.0691L26.8566 13.5636C25.1853 12.1029 23.0474 11.1698 20.6953 11.014V9.59094H22.7812C23.1655 9.59094 23.4766 9.28055 23.4766 8.89703C23.4766 8.51344 23.1655 8.20312 22.7812 8.20312H17.2187C16.8345 8.20312 16.5234 8.51352 16.5234 8.89703C16.5234 9.28063 16.8345 9.59094 17.2187 9.59094H19.3047V11.014C13.878 11.3737 9.57031 15.8822 9.57031 21.3878C9.57031 27.1277 14.2488 31.7968 20 31.7968C25.7512 31.7968 30.4297 27.1277 30.4297 21.3878C30.4297 18.7673 29.447 16.3766 27.8398 14.5448ZM25.4056 26.7827C25.2698 26.9183 25.092 26.986 24.914 26.986C24.7361 26.986 24.5582 26.9183 24.4223 26.7827L19.5083 21.8784C19.3779 21.7484 19.3046 21.5721 19.3046 21.3878V14.4484C19.3046 14.0648 19.6156 13.7545 19.9999 13.7545C20.9356 13.7545 21.8509 13.9226 22.7201 14.2533C25.6677 15.3762 27.6484 18.2434 27.6484 21.3878C27.6484 23.4242 26.852 25.3399 25.4056 26.7827Z" fill="white"/>
</g>
<defs>
<linearGradient id="paint0_linear_12620_46262" x1="20" y1="40" x2="20" y2="0" gradientUnits="userSpaceOnUse">
<stop stop-color="#586A84"/>
<stop offset="1" stop-color="#586A84" stop-opacity="0.48"/>
</linearGradient>
<clipPath id="clip0_12620_46262">
<rect width="40" height="40" fill="white"/>
</clipPath>
</defs>
</svg>
