<svg width="41" height="40" viewBox="0 0 41 40" fill="none" xmlns="http://www.w3.org/2000/svg">
<g clip-path="url(#clip0_12620_46195)">
<path d="M20.334 40C31.3797 40 40.334 31.0457 40.334 20C40.334 8.9543 31.3797 0 20.334 0C9.28829 0 0.333984 8.9543 0.333984 20C0.333984 31.0457 9.28829 40 20.334 40Z" fill="url(#paint0_linear_12620_46195)"/>
<path d="M24.2518 19.2627H16.4179C15.5286 19.2627 14.805 18.5392 14.805 17.6498V15.1154H25.8645V17.6498C25.8646 18.5392 25.1411 19.2627 24.2518 19.2627ZM25.8646 13.733H14.8051V12.5809C14.8051 11.6916 15.5286 10.968 16.418 10.968H17.57V9.81602C17.57 8.92672 18.2935 8.20312 19.1829 8.20312H21.487C22.3763 8.20312 23.0998 8.92664 23.0998 9.81602V10.968H24.2519C25.1412 10.968 25.8648 11.6916 25.8648 12.5809L25.8646 13.733ZM18.9524 10.9681H21.7173V9.81609C21.7173 9.68906 21.614 9.5857 21.487 9.5857H19.1829C19.0559 9.5857 18.9525 9.68906 18.9525 9.81609L18.9524 10.9681ZM22.1781 24.4239V23.5023C22.1781 22.4842 21.3529 21.659 20.3348 21.659C19.3168 21.659 18.4916 22.4842 18.4916 23.5023V24.4239C18.4916 25.4419 19.3168 26.2672 20.3348 26.2672C21.3529 26.2672 22.1781 25.4419 22.1781 24.4239ZM22.3659 26.9276C21.8109 27.3786 21.1041 27.6496 20.3348 27.6496C19.5656 27.6496 18.8588 27.3786 18.3038 26.9276C17.4404 27.5559 16.8787 28.5738 16.8787 29.7233V31.797H23.7909V29.7233C23.7909 28.5738 23.2292 27.5559 22.3659 26.9276ZM28.6295 26.2672C29.6475 26.2672 30.4728 25.442 30.4728 24.4239V23.5023C30.4728 22.4842 29.6476 21.659 28.6295 21.659C27.6115 21.659 26.7863 22.4842 26.7863 23.5023V24.4239C26.7863 25.4419 27.6115 26.2672 28.6295 26.2672ZM30.6605 26.9276C30.1055 27.3786 29.3987 27.6496 28.6295 27.6496C27.8602 27.6496 27.1534 27.3786 26.5984 26.9276C25.735 27.5559 25.1733 28.5738 25.1733 29.7233V31.797H31.3943C31.776 31.797 32.0855 31.4875 32.0855 31.1057V29.7233C32.0856 28.5738 31.5239 27.5559 30.6605 26.9276ZM12.0402 26.2672C13.0581 26.2672 13.8834 25.442 13.8834 24.4239V23.5023C13.8834 22.4842 13.0582 21.659 12.0402 21.659C11.0221 21.659 10.1969 22.4842 10.1969 23.5023V24.4239C10.1969 25.4419 11.0222 26.2672 12.0402 26.2672ZM14.0712 26.9276C13.5162 27.3786 12.8094 27.6496 12.0402 27.6496C11.2709 27.6496 10.5641 27.3786 10.0091 26.9276C9.1457 27.5559 8.58398 28.5738 8.58398 29.7233V31.1057C8.58398 31.4874 8.89344 31.797 9.27523 31.797H15.4962V29.7233C15.4962 28.5738 14.9346 27.5559 14.0712 26.9276Z" fill="url(#paint1_linear_12620_46195)"/>
</g>
<defs>
<linearGradient id="paint0_linear_12620_46195" x1="20.334" y1="40" x2="20.334" y2="0" gradientUnits="userSpaceOnUse">
<stop stop-color="#2C8AD3"/>
<stop offset="1" stop-color="#84C9FF"/>
</linearGradient>
<linearGradient id="paint1_linear_12620_46195" x1="20.3348" y1="31.797" x2="20.3348" y2="8.2032" gradientUnits="userSpaceOnUse">
<stop stop-color="white"/>
<stop offset="1" stop-color="white"/>
</linearGradient>
<clipPath id="clip0_12620_46195">
<rect width="40" height="40" fill="white" transform="translate(0.333984)"/>
</clipPath>
</defs>
</svg>
