<svg width="315" height="122" viewBox="0 0 315 122" fill="none" xmlns="http://www.w3.org/2000/svg">
<rect x="0.5" y="0.5" width="314" height="121" rx="11.5" fill="#F2F6FA"/>
<rect x="0.5" y="0.5" width="314" height="121" rx="11.5" stroke="#2C8AD3" stroke-linecap="round" stroke-dasharray="4 4"/>
<path fill-rule="evenodd" clip-rule="evenodd" d="M145.5 20C144.395 20 143.5 20.8954 143.5 22V58C143.5 59.1046 144.395 60 145.5 60H171.5C172.605 60 173.5 59.1046 173.5 58V32L161.5 20H145.5Z" fill="#C4C4C4"/>
<path d="M173.5 32L163.5 32C162.395 32 161.5 31.1046 161.5 30V20L173.5 32Z" fill="#C4C4C4"/>
<rect x="141.5" y="40" width="28" height="12" rx="2" fill="#FF001F"/>
<path d="M150.081 47.1138H148.415V46.2393H150.081C150.371 46.2393 150.605 46.1924 150.784 46.0986C150.962 46.0049 151.093 45.876 151.175 45.7119C151.26 45.5449 151.302 45.3545 151.302 45.1406C151.302 44.9385 151.26 44.7495 151.175 44.5737C151.093 44.395 150.962 44.2515 150.784 44.1431C150.605 44.0347 150.371 43.9805 150.081 43.9805H148.753V49.5H147.65V43.1016H150.081C150.576 43.1016 150.996 43.1895 151.342 43.3652C151.69 43.5381 151.956 43.7783 152.137 44.0859C152.319 44.3906 152.41 44.7393 152.41 45.1318C152.41 45.5449 152.319 45.8994 152.137 46.1953C151.956 46.4912 151.69 46.7183 151.342 46.8765C150.996 47.0347 150.576 47.1138 150.081 47.1138ZM155.257 49.5H153.891L153.899 48.6255H155.257C155.653 48.6255 155.984 48.5391 156.25 48.3662C156.52 48.1934 156.722 47.9458 156.857 47.6235C156.995 47.3013 157.063 46.9175 157.063 46.4722V46.125C157.063 45.7793 157.024 45.4731 156.945 45.2065C156.869 44.9399 156.754 44.7158 156.602 44.5342C156.453 44.3525 156.268 44.2148 156.048 44.1211C155.832 44.0273 155.581 43.9805 155.297 43.9805H153.864V43.1016H155.297C155.722 43.1016 156.11 43.1733 156.461 43.3169C156.813 43.4575 157.116 43.6611 157.371 43.9277C157.629 44.1943 157.827 44.5137 157.964 44.8857C158.102 45.2578 158.171 45.6738 158.171 46.1338V46.4722C158.171 46.9321 158.102 47.3481 157.964 47.7202C157.827 48.0923 157.629 48.4116 157.371 48.6782C157.113 48.9419 156.806 49.1455 156.448 49.2891C156.094 49.4297 155.697 49.5 155.257 49.5ZM154.501 43.1016V49.5H153.398V43.1016H154.501ZM160.381 43.1016V49.5H159.278V43.1016H160.381ZM162.992 45.9009V46.7754H160.1V45.9009H162.992ZM163.356 43.1016V43.9805H160.1V43.1016H163.356Z" fill="white"/>
<path d="M91.1504 83H89.0723L89.0859 81.9268H91.1504C91.8613 81.9268 92.4538 81.7786 92.9277 81.4824C93.4017 81.1816 93.7572 80.7624 93.9941 80.2246C94.2357 79.6823 94.3564 79.0488 94.3564 78.3242V77.7158C94.3564 77.1462 94.2881 76.6403 94.1514 76.1982C94.0146 75.7516 93.8141 75.3757 93.5498 75.0703C93.2855 74.7604 92.9619 74.5257 92.5791 74.3662C92.2008 74.2067 91.7656 74.127 91.2734 74.127H89.0312V73.0469H91.2734C91.9251 73.0469 92.5199 73.1562 93.0576 73.375C93.5954 73.5892 94.0579 73.9014 94.4453 74.3115C94.8372 74.7171 95.138 75.2093 95.3477 75.7881C95.5573 76.3623 95.6621 77.0094 95.6621 77.7295V78.3242C95.6621 79.0443 95.5573 79.6937 95.3477 80.2725C95.138 80.8467 94.835 81.3366 94.4385 81.7422C94.0465 82.1478 93.5726 82.46 93.0166 82.6787C92.4652 82.8929 91.8431 83 91.1504 83ZM89.7764 73.0469V83H88.457V73.0469H89.7764ZM98.7178 76.7656V83H97.4531V75.6035H98.6836L98.7178 76.7656ZM101.028 75.5625L101.021 76.7383C100.917 76.7155 100.816 76.7018 100.721 76.6973C100.63 76.6882 100.525 76.6836 100.406 76.6836C100.115 76.6836 99.8571 76.7292 99.6338 76.8203C99.4105 76.9115 99.2214 77.0391 99.0664 77.2031C98.9115 77.3672 98.7884 77.5632 98.6973 77.791C98.6107 78.0143 98.5537 78.2604 98.5264 78.5293L98.1709 78.7344C98.1709 78.2878 98.2142 77.8685 98.3008 77.4766C98.3919 77.0846 98.5309 76.7383 98.7178 76.4375C98.9046 76.1322 99.1416 75.8952 99.4287 75.7266C99.7204 75.5534 100.067 75.4668 100.468 75.4668C100.559 75.4668 100.664 75.4782 100.782 75.501C100.901 75.5192 100.983 75.5397 101.028 75.5625ZM106.285 81.7354V77.9277C106.285 77.6361 106.226 77.3831 106.107 77.1689C105.993 76.9502 105.82 76.7816 105.588 76.6631C105.355 76.5446 105.068 76.4854 104.727 76.4854C104.408 76.4854 104.127 76.54 103.886 76.6494C103.649 76.7588 103.462 76.9023 103.325 77.0801C103.193 77.2578 103.127 77.4492 103.127 77.6543H101.862C101.862 77.39 101.931 77.1279 102.067 76.8682C102.204 76.6084 102.4 76.3737 102.655 76.1641C102.915 75.9499 103.225 75.7812 103.585 75.6582C103.95 75.5306 104.355 75.4668 104.802 75.4668C105.34 75.4668 105.813 75.5579 106.224 75.7402C106.638 75.9225 106.962 76.1982 107.194 76.5674C107.431 76.932 107.55 77.39 107.55 77.9414V81.3867C107.55 81.6328 107.57 81.8949 107.611 82.1729C107.657 82.4508 107.723 82.6901 107.81 82.8906V83H106.49C106.426 82.8542 106.376 82.6605 106.34 82.4189C106.303 82.1729 106.285 81.945 106.285 81.7354ZM106.504 78.5156L106.518 79.4043H105.239C104.879 79.4043 104.558 79.4339 104.275 79.4932C103.993 79.5479 103.756 79.6322 103.564 79.7461C103.373 79.86 103.227 80.0036 103.127 80.1768C103.027 80.3454 102.977 80.5436 102.977 80.7715C102.977 81.0039 103.029 81.2158 103.134 81.4072C103.239 81.5986 103.396 81.7513 103.605 81.8652C103.82 81.9746 104.082 82.0293 104.392 82.0293C104.779 82.0293 105.121 81.9473 105.417 81.7832C105.713 81.6191 105.948 81.4186 106.121 81.1816C106.299 80.9447 106.395 80.7145 106.408 80.4912L106.948 81.0996C106.916 81.291 106.83 81.5029 106.688 81.7354C106.547 81.9678 106.358 82.1911 106.121 82.4053C105.889 82.6149 105.611 82.7904 105.287 82.9316C104.968 83.0684 104.608 83.1367 104.207 83.1367C103.706 83.1367 103.266 83.0387 102.888 82.8428C102.514 82.6468 102.222 82.3848 102.013 82.0566C101.808 81.724 101.705 81.3525 101.705 80.9424C101.705 80.5459 101.783 80.1973 101.938 79.8965C102.092 79.5911 102.316 79.3382 102.607 79.1377C102.899 78.9326 103.25 78.7777 103.66 78.6729C104.07 78.568 104.528 78.5156 105.034 78.5156H106.504ZM114.331 75.6035H115.479V82.8428C115.479 83.4945 115.347 84.0505 115.083 84.5107C114.819 84.971 114.45 85.3197 113.976 85.5566C113.506 85.7982 112.964 85.9189 112.349 85.9189C112.093 85.9189 111.793 85.8779 111.446 85.7959C111.104 85.7184 110.767 85.584 110.435 85.3926C110.106 85.2057 109.831 84.9528 109.607 84.6338L110.271 83.8818C110.58 84.2555 110.904 84.5153 111.241 84.6611C111.583 84.807 111.92 84.8799 112.253 84.8799C112.654 84.8799 113 84.8047 113.292 84.6543C113.584 84.5039 113.809 84.2806 113.969 83.9844C114.133 83.6927 114.215 83.3327 114.215 82.9043V77.2305L114.331 75.6035ZM109.238 79.3838V79.2402C109.238 78.6751 109.304 78.1624 109.437 77.7021C109.573 77.2373 109.767 76.8385 110.018 76.5059C110.273 76.1732 110.58 75.918 110.94 75.7402C111.3 75.5579 111.706 75.4668 112.157 75.4668C112.622 75.4668 113.028 75.5488 113.374 75.7129C113.725 75.8724 114.021 76.1071 114.263 76.417C114.509 76.7223 114.702 77.0915 114.844 77.5244C114.985 77.9574 115.083 78.4473 115.138 78.9941V79.623C115.088 80.1654 114.99 80.653 114.844 81.0859C114.702 81.5189 114.509 81.888 114.263 82.1934C114.021 82.4987 113.725 82.7334 113.374 82.8975C113.023 83.057 112.613 83.1367 112.144 83.1367C111.701 83.1367 111.3 83.0433 110.94 82.8564C110.585 82.6696 110.28 82.4076 110.024 82.0703C109.769 81.7331 109.573 81.3366 109.437 80.8809C109.304 80.4206 109.238 79.9215 109.238 79.3838ZM110.503 79.2402V79.3838C110.503 79.7529 110.539 80.0993 110.612 80.4229C110.69 80.7464 110.806 81.0312 110.961 81.2773C111.12 81.5234 111.323 81.7171 111.569 81.8584C111.815 81.9951 112.109 82.0635 112.451 82.0635C112.87 82.0635 113.217 81.9746 113.49 81.7969C113.764 81.6191 113.98 81.3844 114.14 81.0928C114.304 80.8011 114.431 80.4844 114.522 80.1426V78.4951C114.472 78.2445 114.395 78.0029 114.29 77.7705C114.19 77.5335 114.058 77.3239 113.894 77.1416C113.734 76.9548 113.536 76.8066 113.299 76.6973C113.062 76.5879 112.784 76.5332 112.465 76.5332C112.118 76.5332 111.82 76.6061 111.569 76.752C111.323 76.8932 111.12 77.0892 110.961 77.3398C110.806 77.5859 110.69 77.873 110.612 78.2012C110.539 78.5247 110.503 78.8711 110.503 79.2402ZM125.234 81.7354V77.9277C125.234 77.6361 125.175 77.3831 125.057 77.1689C124.943 76.9502 124.77 76.7816 124.537 76.6631C124.305 76.5446 124.018 76.4854 123.676 76.4854C123.357 76.4854 123.076 76.54 122.835 76.6494C122.598 76.7588 122.411 76.9023 122.274 77.0801C122.142 77.2578 122.076 77.4492 122.076 77.6543H120.812C120.812 77.39 120.88 77.1279 121.017 76.8682C121.153 76.6084 121.349 76.3737 121.604 76.1641C121.864 75.9499 122.174 75.7812 122.534 75.6582C122.899 75.5306 123.304 75.4668 123.751 75.4668C124.289 75.4668 124.763 75.5579 125.173 75.7402C125.588 75.9225 125.911 76.1982 126.144 76.5674C126.381 76.932 126.499 77.39 126.499 77.9414V81.3867C126.499 81.6328 126.52 81.8949 126.561 82.1729C126.606 82.4508 126.672 82.6901 126.759 82.8906V83H125.439C125.376 82.8542 125.326 82.6605 125.289 82.4189C125.253 82.1729 125.234 81.945 125.234 81.7354ZM125.453 78.5156L125.467 79.4043H124.188C123.828 79.4043 123.507 79.4339 123.225 79.4932C122.942 79.5479 122.705 79.6322 122.514 79.7461C122.322 79.86 122.176 80.0036 122.076 80.1768C121.976 80.3454 121.926 80.5436 121.926 80.7715C121.926 81.0039 121.978 81.2158 122.083 81.4072C122.188 81.5986 122.345 81.7513 122.555 81.8652C122.769 81.9746 123.031 82.0293 123.341 82.0293C123.728 82.0293 124.07 81.9473 124.366 81.7832C124.662 81.6191 124.897 81.4186 125.07 81.1816C125.248 80.9447 125.344 80.7145 125.357 80.4912L125.897 81.0996C125.866 81.291 125.779 81.5029 125.638 81.7354C125.496 81.9678 125.307 82.1911 125.07 82.4053C124.838 82.6149 124.56 82.7904 124.236 82.9316C123.917 83.0684 123.557 83.1367 123.156 83.1367C122.655 83.1367 122.215 83.0387 121.837 82.8428C121.463 82.6468 121.172 82.3848 120.962 82.0566C120.757 81.724 120.654 81.3525 120.654 80.9424C120.654 80.5459 120.732 80.1973 120.887 79.8965C121.042 79.5911 121.265 79.3382 121.557 79.1377C121.848 78.9326 122.199 78.7777 122.609 78.6729C123.02 78.568 123.478 78.5156 123.983 78.5156H125.453ZM129.753 77.1826V83H128.488V75.6035H129.685L129.753 77.1826ZM129.452 79.0215L128.926 79.001C128.93 78.4951 129.006 78.028 129.151 77.5996C129.297 77.1667 129.502 76.7907 129.767 76.4717C130.031 76.1527 130.345 75.9066 130.71 75.7334C131.079 75.5557 131.487 75.4668 131.934 75.4668C132.298 75.4668 132.626 75.5169 132.918 75.6172C133.21 75.7129 133.458 75.8678 133.663 76.082C133.873 76.2962 134.032 76.5742 134.142 76.916C134.251 77.2533 134.306 77.6657 134.306 78.1533V83H133.034V78.1396C133.034 77.7523 132.977 77.4424 132.863 77.21C132.749 76.973 132.583 76.8021 132.364 76.6973C132.146 76.5879 131.877 76.5332 131.558 76.5332C131.243 76.5332 130.956 76.5993 130.696 76.7314C130.441 76.8636 130.22 77.0459 130.033 77.2783C129.851 77.5107 129.707 77.7773 129.603 78.0781C129.502 78.3743 129.452 78.6888 129.452 79.0215ZM140.889 81.5645V72.5H142.16V83H140.998L140.889 81.5645ZM135.912 79.3838V79.2402C135.912 78.6751 135.98 78.1624 136.117 77.7021C136.258 77.2373 136.457 76.8385 136.712 76.5059C136.972 76.1732 137.279 75.918 137.635 75.7402C137.995 75.5579 138.396 75.4668 138.838 75.4668C139.303 75.4668 139.708 75.5488 140.055 75.7129C140.406 75.8724 140.702 76.1071 140.943 76.417C141.189 76.7223 141.383 77.0915 141.524 77.5244C141.666 77.9574 141.764 78.4473 141.818 78.9941V79.623C141.768 80.1654 141.67 80.653 141.524 81.0859C141.383 81.5189 141.189 81.888 140.943 82.1934C140.702 82.4987 140.406 82.7334 140.055 82.8975C139.704 83.057 139.294 83.1367 138.824 83.1367C138.391 83.1367 137.995 83.0433 137.635 82.8564C137.279 82.6696 136.972 82.4076 136.712 82.0703C136.457 81.7331 136.258 81.3366 136.117 80.8809C135.98 80.4206 135.912 79.9215 135.912 79.3838ZM137.184 79.2402V79.3838C137.184 79.7529 137.22 80.0993 137.293 80.4229C137.37 80.7464 137.489 81.0312 137.648 81.2773C137.808 81.5234 138.011 81.7171 138.257 81.8584C138.503 81.9951 138.797 82.0635 139.139 82.0635C139.558 82.0635 139.902 81.9746 140.171 81.7969C140.444 81.6191 140.663 81.3844 140.827 81.0928C140.991 80.8011 141.119 80.4844 141.21 80.1426V78.4951C141.155 78.2445 141.076 78.0029 140.971 77.7705C140.87 77.5335 140.738 77.3239 140.574 77.1416C140.415 76.9548 140.216 76.8066 139.979 76.6973C139.747 76.5879 139.471 76.5332 139.152 76.5332C138.806 76.5332 138.507 76.6061 138.257 76.752C138.011 76.8932 137.808 77.0892 137.648 77.3398C137.489 77.5859 137.37 77.873 137.293 78.2012C137.22 78.5247 137.184 78.8711 137.184 79.2402ZM152.264 81.5645V72.5H153.535V83H152.373L152.264 81.5645ZM147.287 79.3838V79.2402C147.287 78.6751 147.355 78.1624 147.492 77.7021C147.633 77.2373 147.832 76.8385 148.087 76.5059C148.347 76.1732 148.654 75.918 149.01 75.7402C149.37 75.5579 149.771 75.4668 150.213 75.4668C150.678 75.4668 151.083 75.5488 151.43 75.7129C151.781 75.8724 152.077 76.1071 152.318 76.417C152.564 76.7223 152.758 77.0915 152.899 77.5244C153.041 77.9574 153.139 78.4473 153.193 78.9941V79.623C153.143 80.1654 153.045 80.653 152.899 81.0859C152.758 81.5189 152.564 81.888 152.318 82.1934C152.077 82.4987 151.781 82.7334 151.43 82.8975C151.079 83.057 150.669 83.1367 150.199 83.1367C149.766 83.1367 149.37 83.0433 149.01 82.8564C148.654 82.6696 148.347 82.4076 148.087 82.0703C147.832 81.7331 147.633 81.3366 147.492 80.8809C147.355 80.4206 147.287 79.9215 147.287 79.3838ZM148.559 79.2402V79.3838C148.559 79.7529 148.595 80.0993 148.668 80.4229C148.745 80.7464 148.864 81.0312 149.023 81.2773C149.183 81.5234 149.386 81.7171 149.632 81.8584C149.878 81.9951 150.172 82.0635 150.514 82.0635C150.933 82.0635 151.277 81.9746 151.546 81.7969C151.819 81.6191 152.038 81.3844 152.202 81.0928C152.366 80.8011 152.494 80.4844 152.585 80.1426V78.4951C152.53 78.2445 152.451 78.0029 152.346 77.7705C152.245 77.5335 152.113 77.3239 151.949 77.1416C151.79 76.9548 151.591 76.8066 151.354 76.6973C151.122 76.5879 150.846 76.5332 150.527 76.5332C150.181 76.5332 149.882 76.6061 149.632 76.752C149.386 76.8932 149.183 77.0892 149.023 77.3398C148.864 77.5859 148.745 77.873 148.668 78.2012C148.595 78.5247 148.559 78.8711 148.559 79.2402ZM156.769 76.7656V83H155.504V75.6035H156.734L156.769 76.7656ZM159.079 75.5625L159.072 76.7383C158.967 76.7155 158.867 76.7018 158.771 76.6973C158.68 76.6882 158.576 76.6836 158.457 76.6836C158.165 76.6836 157.908 76.7292 157.685 76.8203C157.461 76.9115 157.272 77.0391 157.117 77.2031C156.962 77.3672 156.839 77.5632 156.748 77.791C156.661 78.0143 156.604 78.2604 156.577 78.5293L156.222 78.7344C156.222 78.2878 156.265 77.8685 156.352 77.4766C156.443 77.0846 156.582 76.7383 156.769 76.4375C156.955 76.1322 157.192 75.8952 157.479 75.7266C157.771 75.5534 158.118 75.4668 158.519 75.4668C158.61 75.4668 158.715 75.4782 158.833 75.501C158.951 75.5192 159.034 75.5397 159.079 75.5625ZM159.776 79.3838V79.2266C159.776 78.6934 159.854 78.1989 160.009 77.7432C160.164 77.2829 160.387 76.8841 160.679 76.5469C160.97 76.2051 161.324 75.9408 161.738 75.7539C162.153 75.5625 162.618 75.4668 163.133 75.4668C163.652 75.4668 164.119 75.5625 164.534 75.7539C164.953 75.9408 165.309 76.2051 165.601 76.5469C165.897 76.8841 166.122 77.2829 166.277 77.7432C166.432 78.1989 166.51 78.6934 166.51 79.2266V79.3838C166.51 79.917 166.432 80.4115 166.277 80.8672C166.122 81.3229 165.897 81.7217 165.601 82.0635C165.309 82.4007 164.956 82.665 164.541 82.8564C164.131 83.0433 163.666 83.1367 163.146 83.1367C162.627 83.1367 162.16 83.0433 161.745 82.8564C161.33 82.665 160.975 82.4007 160.679 82.0635C160.387 81.7217 160.164 81.3229 160.009 80.8672C159.854 80.4115 159.776 79.917 159.776 79.3838ZM161.041 79.2266V79.3838C161.041 79.7529 161.084 80.1016 161.171 80.4297C161.257 80.7533 161.387 81.0404 161.561 81.291C161.738 81.5417 161.959 81.7399 162.224 81.8857C162.488 82.027 162.796 82.0977 163.146 82.0977C163.493 82.0977 163.796 82.027 164.056 81.8857C164.32 81.7399 164.539 81.5417 164.712 81.291C164.885 81.0404 165.015 80.7533 165.102 80.4297C165.193 80.1016 165.238 79.7529 165.238 79.3838V79.2266C165.238 78.862 165.193 78.5179 165.102 78.1943C165.015 77.8662 164.883 77.5768 164.705 77.3262C164.532 77.071 164.313 76.8704 164.049 76.7246C163.789 76.5788 163.484 76.5059 163.133 76.5059C162.786 76.5059 162.481 76.5788 162.217 76.7246C161.957 76.8704 161.738 77.071 161.561 77.3262C161.387 77.5768 161.257 77.8662 161.171 78.1943C161.084 78.5179 161.041 78.862 161.041 79.2266ZM169.36 77.0254V85.8438H168.089V75.6035H169.251L169.36 77.0254ZM174.344 79.2402V79.3838C174.344 79.9215 174.28 80.4206 174.152 80.8809C174.025 81.3366 173.838 81.7331 173.592 82.0703C173.35 82.4076 173.052 82.6696 172.696 82.8564C172.341 83.0433 171.933 83.1367 171.473 83.1367C171.003 83.1367 170.589 83.0592 170.229 82.9043C169.868 82.7493 169.563 82.5238 169.312 82.2275C169.062 81.9313 168.861 81.5758 168.711 81.1611C168.565 80.7464 168.465 80.2793 168.41 79.7598V78.9941C168.465 78.4473 168.567 77.9574 168.718 77.5244C168.868 77.0915 169.066 76.7223 169.312 76.417C169.563 76.1071 169.866 75.8724 170.222 75.7129C170.577 75.5488 170.987 75.4668 171.452 75.4668C171.917 75.4668 172.329 75.5579 172.689 75.7402C173.049 75.918 173.353 76.1732 173.599 76.5059C173.845 76.8385 174.029 77.2373 174.152 77.7021C174.28 78.1624 174.344 78.6751 174.344 79.2402ZM173.072 79.3838V79.2402C173.072 78.8711 173.034 78.5247 172.956 78.2012C172.879 77.873 172.758 77.5859 172.594 77.3398C172.434 77.0892 172.229 76.8932 171.979 76.752C171.728 76.6061 171.429 76.5332 171.083 76.5332C170.764 76.5332 170.486 76.5879 170.249 76.6973C170.017 76.8066 169.818 76.9548 169.654 77.1416C169.49 77.3239 169.356 77.5335 169.251 77.7705C169.151 78.0029 169.076 78.2445 169.025 78.4951V80.2656C169.117 80.5846 169.244 80.8854 169.408 81.168C169.572 81.446 169.791 81.6715 170.064 81.8447C170.338 82.0133 170.682 82.0977 171.097 82.0977C171.438 82.0977 171.732 82.027 171.979 81.8857C172.229 81.7399 172.434 81.5417 172.594 81.291C172.758 81.0404 172.879 80.7533 172.956 80.4297C173.034 80.1016 173.072 79.7529 173.072 79.3838ZM181.118 83H179.854V74.9609C179.854 74.4004 179.963 73.9264 180.182 73.5391C180.4 73.1517 180.713 72.8577 181.118 72.6572C181.524 72.4567 182.005 72.3564 182.561 72.3564C182.889 72.3564 183.21 72.3975 183.524 72.4795C183.839 72.557 184.162 72.6549 184.495 72.7734L184.283 73.8398C184.074 73.7578 183.83 73.6803 183.552 73.6074C183.278 73.5299 182.978 73.4912 182.649 73.4912C182.107 73.4912 181.715 73.6143 181.474 73.8604C181.237 74.1019 181.118 74.4688 181.118 74.9609V83ZM182.629 75.6035V76.5742H178.685V75.6035H182.629ZM185.117 75.6035V83H183.853V75.6035H185.117ZM188.569 72.5V83H187.298V72.5H188.569ZM193.669 83.1367C193.154 83.1367 192.687 83.0501 192.268 82.877C191.853 82.6992 191.495 82.4508 191.194 82.1318C190.898 81.8128 190.67 81.4346 190.511 80.9971C190.351 80.5596 190.271 80.0811 190.271 79.5615V79.2744C190.271 78.6729 190.36 78.1374 190.538 77.668C190.716 77.194 190.957 76.793 191.263 76.4648C191.568 76.1367 191.914 75.8883 192.302 75.7197C192.689 75.5511 193.09 75.4668 193.505 75.4668C194.034 75.4668 194.489 75.5579 194.872 75.7402C195.259 75.9225 195.576 76.1777 195.822 76.5059C196.068 76.8294 196.251 77.2122 196.369 77.6543C196.488 78.0918 196.547 78.5703 196.547 79.0898V79.6572H191.023V78.625H195.282V78.5293C195.264 78.2012 195.196 77.8822 195.077 77.5723C194.963 77.2624 194.781 77.0072 194.53 76.8066C194.28 76.6061 193.938 76.5059 193.505 76.5059C193.218 76.5059 192.953 76.5674 192.712 76.6904C192.47 76.8089 192.263 76.9867 192.09 77.2236C191.917 77.4606 191.782 77.75 191.687 78.0918C191.591 78.4336 191.543 78.8278 191.543 79.2744V79.5615C191.543 79.9124 191.591 80.2428 191.687 80.5527C191.787 80.8581 191.93 81.127 192.117 81.3594C192.309 81.5918 192.539 81.7741 192.808 81.9062C193.081 82.0384 193.391 82.1045 193.737 82.1045C194.184 82.1045 194.562 82.0133 194.872 81.8311C195.182 81.6488 195.453 81.4049 195.686 81.0996L196.451 81.708C196.292 81.9495 196.089 82.1797 195.843 82.3984C195.597 82.6172 195.294 82.7949 194.934 82.9316C194.578 83.0684 194.157 83.1367 193.669 83.1367ZM202.761 72.5V83H201.496V72.5H202.761ZM202.46 79.0215L201.934 79.001C201.938 78.4951 202.013 78.028 202.159 77.5996C202.305 77.1667 202.51 76.7907 202.774 76.4717C203.039 76.1527 203.353 75.9066 203.718 75.7334C204.087 75.5557 204.495 75.4668 204.941 75.4668C205.306 75.4668 205.634 75.5169 205.926 75.6172C206.217 75.7129 206.466 75.8678 206.671 76.082C206.881 76.2962 207.04 76.5742 207.149 76.916C207.259 77.2533 207.313 77.6657 207.313 78.1533V83H206.042V78.1396C206.042 77.7523 205.985 77.4424 205.871 77.21C205.757 76.973 205.591 76.8021 205.372 76.6973C205.153 76.5879 204.884 76.5332 204.565 76.5332C204.251 76.5332 203.964 76.5993 203.704 76.7314C203.449 76.8636 203.228 77.0459 203.041 77.2783C202.859 77.5107 202.715 77.7773 202.61 78.0781C202.51 78.3743 202.46 78.6888 202.46 79.0215ZM212.276 83.1367C211.761 83.1367 211.294 83.0501 210.875 82.877C210.46 82.6992 210.103 82.4508 209.802 82.1318C209.506 81.8128 209.278 81.4346 209.118 80.9971C208.959 80.5596 208.879 80.0811 208.879 79.5615V79.2744C208.879 78.6729 208.968 78.1374 209.146 77.668C209.323 77.194 209.565 76.793 209.87 76.4648C210.175 76.1367 210.522 75.8883 210.909 75.7197C211.297 75.5511 211.698 75.4668 212.112 75.4668C212.641 75.4668 213.097 75.5579 213.479 75.7402C213.867 75.9225 214.184 76.1777 214.43 76.5059C214.676 76.8294 214.858 77.2122 214.977 77.6543C215.095 78.0918 215.154 78.5703 215.154 79.0898V79.6572H209.631V78.625H213.89V78.5293C213.871 78.2012 213.803 77.8822 213.685 77.5723C213.571 77.2624 213.388 77.0072 213.138 76.8066C212.887 76.6061 212.545 76.5059 212.112 76.5059C211.825 76.5059 211.561 76.5674 211.319 76.6904C211.078 76.8089 210.87 76.9867 210.697 77.2236C210.524 77.4606 210.39 77.75 210.294 78.0918C210.198 78.4336 210.15 78.8278 210.15 79.2744V79.5615C210.15 79.9124 210.198 80.2428 210.294 80.5527C210.394 80.8581 210.538 81.127 210.725 81.3594C210.916 81.5918 211.146 81.7741 211.415 81.9062C211.688 82.0384 211.998 82.1045 212.345 82.1045C212.791 82.1045 213.17 82.0133 213.479 81.8311C213.789 81.6488 214.061 81.4049 214.293 81.0996L215.059 81.708C214.899 81.9495 214.696 82.1797 214.45 82.3984C214.204 82.6172 213.901 82.7949 213.541 82.9316C213.186 83.0684 212.764 83.1367 212.276 83.1367ZM217.896 76.7656V83H216.631V75.6035H217.861L217.896 76.7656ZM220.206 75.5625L220.199 76.7383C220.094 76.7155 219.994 76.7018 219.898 76.6973C219.807 76.6882 219.702 76.6836 219.584 76.6836C219.292 76.6836 219.035 76.7292 218.812 76.8203C218.588 76.9115 218.399 77.0391 218.244 77.2031C218.089 77.3672 217.966 77.5632 217.875 77.791C217.788 78.0143 217.731 78.2604 217.704 78.5293L217.349 78.7344C217.349 78.2878 217.392 77.8685 217.479 77.4766C217.57 77.0846 217.709 76.7383 217.896 76.4375C218.082 76.1322 218.319 75.8952 218.606 75.7266C218.898 75.5534 219.244 75.4668 219.646 75.4668C219.737 75.4668 219.841 75.4782 219.96 75.501C220.078 75.5192 220.16 75.5397 220.206 75.5625ZM224.308 83.1367C223.793 83.1367 223.326 83.0501 222.906 82.877C222.492 82.6992 222.134 82.4508 221.833 82.1318C221.537 81.8128 221.309 81.4346 221.149 80.9971C220.99 80.5596 220.91 80.0811 220.91 79.5615V79.2744C220.91 78.6729 220.999 78.1374 221.177 77.668C221.354 77.194 221.596 76.793 221.901 76.4648C222.207 76.1367 222.553 75.8883 222.94 75.7197C223.328 75.5511 223.729 75.4668 224.144 75.4668C224.672 75.4668 225.128 75.5579 225.511 75.7402C225.898 75.9225 226.215 76.1777 226.461 76.5059C226.707 76.8294 226.889 77.2122 227.008 77.6543C227.126 78.0918 227.186 78.5703 227.186 79.0898V79.6572H221.662V78.625H225.921V78.5293C225.903 78.2012 225.834 77.8822 225.716 77.5723C225.602 77.2624 225.42 77.0072 225.169 76.8066C224.918 76.6061 224.576 76.5059 224.144 76.5059C223.856 76.5059 223.592 76.5674 223.351 76.6904C223.109 76.8089 222.902 76.9867 222.729 77.2236C222.555 77.4606 222.421 77.75 222.325 78.0918C222.229 78.4336 222.182 78.8278 222.182 79.2744V79.5615C222.182 79.9124 222.229 80.2428 222.325 80.5527C222.425 80.8581 222.569 81.127 222.756 81.3594C222.947 81.5918 223.177 81.7741 223.446 81.9062C223.72 82.0384 224.03 82.1045 224.376 82.1045C224.823 82.1045 225.201 82.0133 225.511 81.8311C225.821 81.6488 226.092 81.4049 226.324 81.0996L227.09 81.708C226.93 81.9495 226.728 82.1797 226.481 82.3984C226.235 82.6172 225.932 82.7949 225.572 82.9316C225.217 83.0684 224.795 83.1367 224.308 83.1367ZM104.815 95.3838V95.2266C104.815 94.6934 104.893 94.1989 105.048 93.7432C105.203 93.2829 105.426 92.8841 105.718 92.5469C106.009 92.2051 106.363 91.9408 106.777 91.7539C107.192 91.5625 107.657 91.4668 108.172 91.4668C108.691 91.4668 109.159 91.5625 109.573 91.7539C109.993 91.9408 110.348 92.2051 110.64 92.5469C110.936 92.8841 111.161 93.2829 111.316 93.7432C111.471 94.1989 111.549 94.6934 111.549 95.2266V95.3838C111.549 95.917 111.471 96.4115 111.316 96.8672C111.161 97.3229 110.936 97.7217 110.64 98.0635C110.348 98.4007 109.995 98.665 109.58 98.8564C109.17 99.0433 108.705 99.1367 108.186 99.1367C107.666 99.1367 107.199 99.0433 106.784 98.8564C106.369 98.665 106.014 98.4007 105.718 98.0635C105.426 97.7217 105.203 97.3229 105.048 96.8672C104.893 96.4115 104.815 95.917 104.815 95.3838ZM106.08 95.2266V95.3838C106.08 95.7529 106.123 96.1016 106.21 96.4297C106.297 96.7533 106.426 97.0404 106.6 97.291C106.777 97.5417 106.998 97.7399 107.263 97.8857C107.527 98.027 107.835 98.0977 108.186 98.0977C108.532 98.0977 108.835 98.027 109.095 97.8857C109.359 97.7399 109.578 97.5417 109.751 97.291C109.924 97.0404 110.054 96.7533 110.141 96.4297C110.232 96.1016 110.277 95.7529 110.277 95.3838V95.2266C110.277 94.862 110.232 94.5179 110.141 94.1943C110.054 93.8662 109.922 93.5768 109.744 93.3262C109.571 93.071 109.352 92.8704 109.088 92.7246C108.828 92.5788 108.523 92.5059 108.172 92.5059C107.826 92.5059 107.52 92.5788 107.256 92.7246C106.996 92.8704 106.777 93.071 106.6 93.3262C106.426 93.5768 106.297 93.8662 106.21 94.1943C106.123 94.5179 106.08 94.862 106.08 95.2266ZM114.399 92.7656V99H113.135V91.6035H114.365L114.399 92.7656ZM116.71 91.5625L116.703 92.7383C116.598 92.7155 116.498 92.7018 116.402 92.6973C116.311 92.6882 116.206 92.6836 116.088 92.6836C115.796 92.6836 115.539 92.7292 115.315 92.8203C115.092 92.9115 114.903 93.0391 114.748 93.2031C114.593 93.3672 114.47 93.5632 114.379 93.791C114.292 94.0143 114.235 94.2604 114.208 94.5293L113.853 94.7344C113.853 94.2878 113.896 93.8685 113.982 93.4766C114.074 93.0846 114.213 92.7383 114.399 92.4375C114.586 92.1322 114.823 91.8952 115.11 91.7266C115.402 91.5534 115.748 91.4668 116.149 91.4668C116.241 91.4668 116.345 91.4782 116.464 91.501C116.582 91.5192 116.664 91.5397 116.71 91.5625ZM124.312 98.0977C124.612 98.0977 124.89 98.0361 125.146 97.9131C125.401 97.79 125.61 97.6214 125.774 97.4072C125.938 97.1885 126.032 96.9401 126.055 96.6621H127.258C127.235 97.0996 127.087 97.5075 126.813 97.8857C126.545 98.2594 126.191 98.5625 125.754 98.7949C125.316 99.0228 124.836 99.1367 124.312 99.1367C123.756 99.1367 123.27 99.0387 122.855 98.8428C122.445 98.6468 122.104 98.3779 121.83 98.0361C121.561 97.6943 121.358 97.3024 121.222 96.8604C121.09 96.4137 121.023 95.9421 121.023 95.4453V95.1582C121.023 94.6615 121.09 94.1921 121.222 93.75C121.358 93.3034 121.561 92.9092 121.83 92.5674C122.104 92.2256 122.445 91.9567 122.855 91.7607C123.27 91.5648 123.756 91.4668 124.312 91.4668C124.89 91.4668 125.396 91.5853 125.829 91.8223C126.262 92.0547 126.602 92.3737 126.848 92.7793C127.098 93.1803 127.235 93.6361 127.258 94.1465H126.055C126.032 93.8411 125.945 93.5654 125.795 93.3193C125.649 93.0732 125.449 92.8773 125.193 92.7314C124.943 92.5811 124.649 92.5059 124.312 92.5059C123.924 92.5059 123.598 92.5833 123.334 92.7383C123.074 92.8887 122.867 93.0938 122.712 93.3535C122.562 93.6087 122.452 93.8936 122.384 94.208C122.32 94.5179 122.288 94.8346 122.288 95.1582V95.4453C122.288 95.7689 122.32 96.0879 122.384 96.4023C122.448 96.7168 122.555 97.0016 122.705 97.2568C122.86 97.512 123.067 97.7171 123.327 97.8721C123.591 98.0225 123.92 98.0977 124.312 98.0977ZM130.054 88.5V99H128.782V88.5H130.054ZM133.458 91.6035V99H132.187V91.6035H133.458ZM132.091 89.6416C132.091 89.4365 132.152 89.2633 132.275 89.1221C132.403 88.9808 132.59 88.9102 132.836 88.9102C133.077 88.9102 133.262 88.9808 133.39 89.1221C133.522 89.2633 133.588 89.4365 133.588 89.6416C133.588 89.8376 133.522 90.0062 133.39 90.1475C133.262 90.2842 133.077 90.3525 132.836 90.3525C132.59 90.3525 132.403 90.2842 132.275 90.1475C132.152 90.0062 132.091 89.8376 132.091 89.6416ZM138.448 98.0977C138.749 98.0977 139.027 98.0361 139.282 97.9131C139.537 97.79 139.747 97.6214 139.911 97.4072C140.075 97.1885 140.169 96.9401 140.191 96.6621H141.395C141.372 97.0996 141.224 97.5075 140.95 97.8857C140.681 98.2594 140.328 98.5625 139.891 98.7949C139.453 99.0228 138.972 99.1367 138.448 99.1367C137.892 99.1367 137.407 99.0387 136.992 98.8428C136.582 98.6468 136.24 98.3779 135.967 98.0361C135.698 97.6943 135.495 97.3024 135.358 96.8604C135.226 96.4137 135.16 95.9421 135.16 95.4453V95.1582C135.16 94.6615 135.226 94.1921 135.358 93.75C135.495 93.3034 135.698 92.9092 135.967 92.5674C136.24 92.2256 136.582 91.9567 136.992 91.7607C137.407 91.5648 137.892 91.4668 138.448 91.4668C139.027 91.4668 139.533 91.5853 139.966 91.8223C140.399 92.0547 140.738 92.3737 140.984 92.7793C141.235 93.1803 141.372 93.6361 141.395 94.1465H140.191C140.169 93.8411 140.082 93.5654 139.932 93.3193C139.786 93.0732 139.585 92.8773 139.33 92.7314C139.079 92.5811 138.785 92.5059 138.448 92.5059C138.061 92.5059 137.735 92.5833 137.471 92.7383C137.211 92.8887 137.004 93.0938 136.849 93.3535C136.698 93.6087 136.589 93.8936 136.521 94.208C136.457 94.5179 136.425 94.8346 136.425 95.1582V95.4453C136.425 95.7689 136.457 96.0879 136.521 96.4023C136.584 96.7168 136.691 97.0016 136.842 97.2568C136.997 97.512 137.204 97.7171 137.464 97.8721C137.728 98.0225 138.056 98.0977 138.448 98.0977ZM144.088 88.5V99H142.816V88.5H144.088ZM148.606 91.6035L145.38 95.0557L143.575 96.9287L143.473 95.582L144.765 94.0371L147.062 91.6035H148.606ZM147.451 99L144.812 95.4727L145.469 94.3447L148.941 99H147.451ZM156.481 91.6035V92.5742H152.482V91.6035H156.481ZM153.836 89.8057H155.101V97.168C155.101 97.4186 155.139 97.6077 155.217 97.7354C155.294 97.863 155.395 97.9473 155.518 97.9883C155.641 98.0293 155.773 98.0498 155.914 98.0498C156.019 98.0498 156.128 98.0407 156.242 98.0225C156.361 97.9997 156.45 97.9814 156.509 97.9678L156.516 99C156.415 99.0319 156.283 99.0615 156.119 99.0889C155.96 99.1208 155.766 99.1367 155.538 99.1367C155.228 99.1367 154.943 99.0752 154.684 98.9521C154.424 98.8291 154.216 98.624 154.062 98.3369C153.911 98.0452 153.836 97.6533 153.836 97.1611V89.8057ZM157.493 95.3838V95.2266C157.493 94.6934 157.571 94.1989 157.726 93.7432C157.881 93.2829 158.104 92.8841 158.396 92.5469C158.687 92.2051 159.04 91.9408 159.455 91.7539C159.87 91.5625 160.335 91.4668 160.85 91.4668C161.369 91.4668 161.836 91.5625 162.251 91.7539C162.67 91.9408 163.026 92.2051 163.317 92.5469C163.614 92.8841 163.839 93.2829 163.994 93.7432C164.149 94.1989 164.227 94.6934 164.227 95.2266V95.3838C164.227 95.917 164.149 96.4115 163.994 96.8672C163.839 97.3229 163.614 97.7217 163.317 98.0635C163.026 98.4007 162.673 98.665 162.258 98.8564C161.848 99.0433 161.383 99.1367 160.863 99.1367C160.344 99.1367 159.877 99.0433 159.462 98.8564C159.047 98.665 158.692 98.4007 158.396 98.0635C158.104 97.7217 157.881 97.3229 157.726 96.8672C157.571 96.4115 157.493 95.917 157.493 95.3838ZM158.758 95.2266V95.3838C158.758 95.7529 158.801 96.1016 158.888 96.4297C158.974 96.7533 159.104 97.0404 159.277 97.291C159.455 97.5417 159.676 97.7399 159.94 97.8857C160.205 98.027 160.512 98.0977 160.863 98.0977C161.21 98.0977 161.513 98.027 161.772 97.8857C162.037 97.7399 162.256 97.5417 162.429 97.291C162.602 97.0404 162.732 96.7533 162.818 96.4297C162.91 96.1016 162.955 95.7529 162.955 95.3838V95.2266C162.955 94.862 162.91 94.5179 162.818 94.1943C162.732 93.8662 162.6 93.5768 162.422 93.3262C162.249 93.071 162.03 92.8704 161.766 92.7246C161.506 92.5788 161.201 92.5059 160.85 92.5059C160.503 92.5059 160.198 92.5788 159.934 92.7246C159.674 92.8704 159.455 93.071 159.277 93.3262C159.104 93.5768 158.974 93.8662 158.888 94.1943C158.801 94.5179 158.758 94.862 158.758 95.2266ZM173.811 97.291V91.6035H175.082V99H173.872L173.811 97.291ZM174.05 95.7324L174.576 95.7188C174.576 96.2109 174.524 96.6667 174.419 97.0859C174.319 97.5007 174.155 97.8607 173.927 98.166C173.699 98.4714 173.4 98.7106 173.031 98.8838C172.662 99.0524 172.213 99.1367 171.685 99.1367C171.325 99.1367 170.994 99.0843 170.693 98.9795C170.397 98.8747 170.142 98.7129 169.928 98.4941C169.714 98.2754 169.547 97.9906 169.429 97.6396C169.315 97.2887 169.258 96.8672 169.258 96.375V91.6035H170.522V96.3887C170.522 96.7214 170.559 96.9971 170.632 97.2158C170.709 97.43 170.812 97.6009 170.939 97.7285C171.072 97.8516 171.217 97.9382 171.377 97.9883C171.541 98.0384 171.71 98.0635 171.883 98.0635C172.421 98.0635 172.847 97.9609 173.161 97.7559C173.476 97.5462 173.701 97.266 173.838 96.915C173.979 96.5596 174.05 96.1654 174.05 95.7324ZM178.274 93.0254V101.844H177.003V91.6035H178.165L178.274 93.0254ZM183.258 95.2402V95.3838C183.258 95.9215 183.194 96.4206 183.066 96.8809C182.939 97.3366 182.752 97.7331 182.506 98.0703C182.264 98.4076 181.966 98.6696 181.61 98.8564C181.255 99.0433 180.847 99.1367 180.387 99.1367C179.917 99.1367 179.503 99.0592 179.143 98.9043C178.783 98.7493 178.477 98.5238 178.227 98.2275C177.976 97.9313 177.775 97.5758 177.625 97.1611C177.479 96.7464 177.379 96.2793 177.324 95.7598V94.9941C177.379 94.4473 177.481 93.9574 177.632 93.5244C177.782 93.0915 177.98 92.7223 178.227 92.417C178.477 92.1071 178.78 91.8724 179.136 91.7129C179.491 91.5488 179.901 91.4668 180.366 91.4668C180.831 91.4668 181.243 91.5579 181.604 91.7402C181.964 91.918 182.267 92.1732 182.513 92.5059C182.759 92.8385 182.943 93.2373 183.066 93.7021C183.194 94.1624 183.258 94.6751 183.258 95.2402ZM181.986 95.3838V95.2402C181.986 94.8711 181.948 94.5247 181.87 94.2012C181.793 93.873 181.672 93.5859 181.508 93.3398C181.348 93.0892 181.143 92.8932 180.893 92.752C180.642 92.6061 180.343 92.5332 179.997 92.5332C179.678 92.5332 179.4 92.5879 179.163 92.6973C178.931 92.8066 178.732 92.9548 178.568 93.1416C178.404 93.3239 178.27 93.5335 178.165 93.7705C178.065 94.0029 177.99 94.2445 177.939 94.4951V96.2656C178.031 96.5846 178.158 96.8854 178.322 97.168C178.486 97.446 178.705 97.6715 178.979 97.8447C179.252 98.0133 179.596 98.0977 180.011 98.0977C180.353 98.0977 180.646 98.027 180.893 97.8857C181.143 97.7399 181.348 97.5417 181.508 97.291C181.672 97.0404 181.793 96.7533 181.87 96.4297C181.948 96.1016 181.986 95.7529 181.986 95.3838ZM186.245 88.5V99H184.974V88.5H186.245ZM187.94 95.3838V95.2266C187.94 94.6934 188.018 94.1989 188.173 93.7432C188.328 93.2829 188.551 92.8841 188.843 92.5469C189.134 92.2051 189.488 91.9408 189.902 91.7539C190.317 91.5625 190.782 91.4668 191.297 91.4668C191.816 91.4668 192.284 91.5625 192.698 91.7539C193.118 91.9408 193.473 92.2051 193.765 92.5469C194.061 92.8841 194.286 93.2829 194.441 93.7432C194.596 94.1989 194.674 94.6934 194.674 95.2266V95.3838C194.674 95.917 194.596 96.4115 194.441 96.8672C194.286 97.3229 194.061 97.7217 193.765 98.0635C193.473 98.4007 193.12 98.665 192.705 98.8564C192.295 99.0433 191.83 99.1367 191.311 99.1367C190.791 99.1367 190.324 99.0433 189.909 98.8564C189.494 98.665 189.139 98.4007 188.843 98.0635C188.551 97.7217 188.328 97.3229 188.173 96.8672C188.018 96.4115 187.94 95.917 187.94 95.3838ZM189.205 95.2266V95.3838C189.205 95.7529 189.248 96.1016 189.335 96.4297C189.422 96.7533 189.551 97.0404 189.725 97.291C189.902 97.5417 190.123 97.7399 190.388 97.8857C190.652 98.027 190.96 98.0977 191.311 98.0977C191.657 98.0977 191.96 98.027 192.22 97.8857C192.484 97.7399 192.703 97.5417 192.876 97.291C193.049 97.0404 193.179 96.7533 193.266 96.4297C193.357 96.1016 193.402 95.7529 193.402 95.3838V95.2266C193.402 94.862 193.357 94.5179 193.266 94.1943C193.179 93.8662 193.047 93.5768 192.869 93.3262C192.696 93.071 192.477 92.8704 192.213 92.7246C191.953 92.5788 191.648 92.5059 191.297 92.5059C190.951 92.5059 190.645 92.5788 190.381 92.7246C190.121 92.8704 189.902 93.071 189.725 93.3262C189.551 93.5768 189.422 93.8662 189.335 94.1943C189.248 94.5179 189.205 94.862 189.205 95.2266ZM200.621 97.7354V93.9277C200.621 93.6361 200.562 93.3831 200.443 93.1689C200.329 92.9502 200.156 92.7816 199.924 92.6631C199.691 92.5446 199.404 92.4854 199.062 92.4854C198.743 92.4854 198.463 92.54 198.222 92.6494C197.985 92.7588 197.798 92.9023 197.661 93.0801C197.529 93.2578 197.463 93.4492 197.463 93.6543H196.198C196.198 93.39 196.267 93.1279 196.403 92.8682C196.54 92.6084 196.736 92.3737 196.991 92.1641C197.251 91.9499 197.561 91.7812 197.921 91.6582C198.285 91.5306 198.691 91.4668 199.138 91.4668C199.675 91.4668 200.149 91.5579 200.56 91.7402C200.974 91.9225 201.298 92.1982 201.53 92.5674C201.767 92.932 201.886 93.39 201.886 93.9414V97.3867C201.886 97.6328 201.906 97.8949 201.947 98.1729C201.993 98.4508 202.059 98.6901 202.146 98.8906V99H200.826C200.762 98.8542 200.712 98.6605 200.676 98.4189C200.639 98.1729 200.621 97.945 200.621 97.7354ZM200.84 94.5156L200.854 95.4043H199.575C199.215 95.4043 198.894 95.4339 198.611 95.4932C198.329 95.5479 198.092 95.6322 197.9 95.7461C197.709 95.86 197.563 96.0036 197.463 96.1768C197.363 96.3454 197.312 96.5436 197.312 96.7715C197.312 97.0039 197.365 97.2158 197.47 97.4072C197.575 97.5986 197.732 97.7513 197.941 97.8652C198.156 97.9746 198.418 98.0293 198.728 98.0293C199.115 98.0293 199.457 97.9473 199.753 97.7832C200.049 97.6191 200.284 97.4186 200.457 97.1816C200.635 96.9447 200.73 96.7145 200.744 96.4912L201.284 97.0996C201.252 97.291 201.166 97.5029 201.024 97.7354C200.883 97.9678 200.694 98.1911 200.457 98.4053C200.225 98.6149 199.947 98.7904 199.623 98.9316C199.304 99.0684 198.944 99.1367 198.543 99.1367C198.042 99.1367 197.602 99.0387 197.224 98.8428C196.85 98.6468 196.558 98.3848 196.349 98.0566C196.144 97.724 196.041 97.3525 196.041 96.9424C196.041 96.5459 196.118 96.1973 196.273 95.8965C196.428 95.5911 196.652 95.3382 196.943 95.1377C197.235 94.9326 197.586 94.7777 197.996 94.6729C198.406 94.568 198.864 94.5156 199.37 94.5156H200.84ZM208.537 97.5645V88.5H209.809V99H208.646L208.537 97.5645ZM203.561 95.3838V95.2402C203.561 94.6751 203.629 94.1624 203.766 93.7021C203.907 93.2373 204.105 92.8385 204.36 92.5059C204.62 92.1732 204.928 91.918 205.283 91.7402C205.643 91.5579 206.044 91.4668 206.486 91.4668C206.951 91.4668 207.357 91.5488 207.703 91.7129C208.054 91.8724 208.35 92.1071 208.592 92.417C208.838 92.7223 209.032 93.0915 209.173 93.5244C209.314 93.9574 209.412 94.4473 209.467 94.9941V95.623C209.417 96.1654 209.319 96.653 209.173 97.0859C209.032 97.5189 208.838 97.888 208.592 98.1934C208.35 98.4987 208.054 98.7334 207.703 98.8975C207.352 99.057 206.942 99.1367 206.473 99.1367C206.04 99.1367 205.643 99.0433 205.283 98.8564C204.928 98.6696 204.62 98.4076 204.36 98.0703C204.105 97.7331 203.907 97.3366 203.766 96.8809C203.629 96.4206 203.561 95.9215 203.561 95.3838ZM204.832 95.2402V95.3838C204.832 95.7529 204.868 96.0993 204.941 96.4229C205.019 96.7464 205.137 97.0312 205.297 97.2773C205.456 97.5234 205.659 97.7171 205.905 97.8584C206.151 97.9951 206.445 98.0635 206.787 98.0635C207.206 98.0635 207.55 97.9746 207.819 97.7969C208.093 97.6191 208.312 97.3844 208.476 97.0928C208.64 96.8011 208.767 96.4844 208.858 96.1426V94.4951C208.804 94.2445 208.724 94.0029 208.619 93.7705C208.519 93.5335 208.387 93.3239 208.223 93.1416C208.063 92.9548 207.865 92.8066 207.628 92.6973C207.396 92.5879 207.12 92.5332 206.801 92.5332C206.454 92.5332 206.156 92.6061 205.905 92.752C205.659 92.8932 205.456 93.0892 205.297 93.3398C205.137 93.5859 205.019 93.873 204.941 94.2012C204.868 94.5247 204.832 94.8711 204.832 95.2402Z" fill="#2C8AD3"/>
</svg>
